<svg aria-hidden="true" style="position: absolute; width: 0; height: 0; overflow: hidden;" version="1.1" xmlns="http://www.w3.org/2000/svg" xmlns:xlink="http://www.w3.org/1999/xlink">
<defs>
<symbol id="icon-burger-menu" viewBox="0 0 48 32">
<path d="M0 32h48v-5.333h-48v5.333zM0 18.667h48v-5.333h-48v5.333zM0 0v5.333h48v-5.333h-48z"></path>
</symbol>
<symbol id="icon-plus" viewBox="0 0 32 32">
<path fill="#fff" style="fill: var(--color1, #fff)" d="M32 18.286h-13.714v13.714h-4.571v-13.714h-13.714v-4.571h13.714v-13.714h4.571v13.714h13.714v4.571z"></path>
</symbol>
<symbol id="icon-logo-text" viewBox="0 0 192 32">
<path fill="#212121" style="fill: var(--color2, #212121)" d="M0.91 26.231l1.322-1.528c1.559 1.426 3.098 2.463 4.619 3.113 1.52 0.637 3.271 0.955 5.251 0.955 2.044 0 3.712-0.516 5.002-1.547s1.936-2.355 1.936-3.972c0-1.018-0.211-1.865-0.633-2.54-0.409-0.675-1.188-1.286-2.338-1.833-1.137-0.547-2.734-1.031-4.791-1.451-3.309-0.675-5.686-1.611-7.13-2.807-1.431-1.21-2.147-2.865-2.147-4.965 0-2.050 0.837-3.762 2.511-5.137s3.782-2.063 6.325-2.063c1.942 0 3.635 0.267 5.079 0.802 1.444 0.522 2.888 1.362 4.331 2.521l-1.284 1.604c-1.265-1.095-2.562-1.884-3.89-2.368-1.316-0.484-2.753-0.726-4.312-0.726-1.993 0-3.609 0.503-4.849 1.509-1.239 0.993-1.859 2.241-1.859 3.743 0 1.031 0.204 1.891 0.613 2.578 0.422 0.675 1.22 1.305 2.396 1.891 1.188 0.573 2.849 1.076 4.983 1.509 3.181 0.649 5.481 1.572 6.9 2.769 1.431 1.197 2.146 2.814 2.146 4.851 0 2.19-0.856 3.985-2.568 5.385-1.712 1.388-3.897 2.082-6.555 2.082-2.159 0-4.127-0.356-5.903-1.069-1.763-0.713-3.482-1.814-5.155-3.304z"></path>
<path fill="#212121" style="fill: var(--color2, #212121)" d="M30.766 30.222v-28.55h1.916v28.55h-1.916z"></path>
<path fill="#212121" style="fill: var(--color2, #212121)" d="M43.451 5.071v-2.616h2.376v2.616h-2.376zM43.681 30.222v-19.938h1.917v19.938h-1.917z"></path>
<path fill="#212121" style="fill: var(--color2, #212121)" d="M56.307 30.222v-19.938h1.936v3.552c0.37-0.586 0.741-1.095 1.111-1.528s0.818-0.847 1.342-1.241c0.537-0.407 1.156-0.719 1.859-0.936 0.715-0.216 1.501-0.325 2.357-0.325 1.635 0 3.015 0.401 4.14 1.203 1.137 0.789 2.006 1.821 2.606 3.094 1.674-2.865 4.082-4.297 7.225-4.297 2.364 0 4.236 0.758 5.615 2.273s2.070 3.533 2.070 6.054v12.089h-1.916v-11.859c0-2.139-0.524-3.807-1.572-5.003s-2.498-1.795-4.351-1.795c-1.763 0-3.258 0.637-4.485 1.91s-1.84 2.986-1.84 5.137v11.611h-1.916v-11.974c0-2.062-0.53-3.692-1.591-4.889-1.048-1.197-2.466-1.795-4.255-1.795s-3.303 0.694-4.542 2.082c-1.239 1.375-1.859 3.068-1.859 5.080v11.497h-1.936z"></path>
<path fill="#fc842d" style="fill: var(--color3, #fc842d)" d="M96.716 29.163v-27.385h1.917l11.039 16.195 11.020-16.195h1.936v27.385h-2.051v-23.776l-10.867 15.755h-0.153l-10.886-15.755v23.776h-1.955z"></path>
<path fill="#fc842d" style="fill: var(--color3, #fc842d)" d="M132.131 19.195c0-1.388 0.262-2.718 0.786-3.991s1.233-2.381 2.127-3.323c0.894-0.955 1.987-1.712 3.277-2.273 1.291-0.573 2.664-0.859 4.121-0.859 1.929 0 3.68 0.477 5.251 1.432 1.584 0.942 2.811 2.215 3.68 3.819 0.882 1.591 1.322 3.323 1.322 5.194 0 1.859-0.441 3.584-1.322 5.175s-2.121 2.871-3.718 3.839c-1.584 0.955-3.347 1.432-5.29 1.432-1.444 0-2.804-0.28-4.082-0.84s-2.364-1.311-3.258-2.253c-0.894-0.942-1.604-2.050-2.127-3.323-0.511-1.286-0.767-2.629-0.767-4.029zM134.2 19.195c0 2.406 0.792 4.45 2.377 6.13 1.597 1.668 3.552 2.502 5.865 2.502 1.457 0 2.811-0.382 4.063-1.146 1.252-0.777 2.249-1.827 2.99-3.151s1.111-2.769 1.111-4.335c0-2.394-0.805-4.431-2.415-6.111-1.61-1.693-3.552-2.54-5.826-2.54-1.482 0-2.849 0.388-4.101 1.165-1.252 0.764-2.242 1.814-2.971 3.151-0.728 1.324-1.092 2.769-1.092 4.335z"></path>
<path fill="#fc842d" style="fill: var(--color3, #fc842d)" d="M161.738 29.163v-19.938h1.936v3.552c0.37-0.586 0.741-1.095 1.112-1.528s0.818-0.847 1.341-1.241c0.537-0.407 1.156-0.719 1.859-0.936 0.716-0.216 1.501-0.325 2.357-0.325 1.635 0 3.015 0.401 4.14 1.203 1.137 0.789 2.006 1.821 2.606 3.094 1.673-2.865 4.082-4.297 7.225-4.297 2.364 0 4.235 0.758 5.616 2.273 1.38 1.515 2.069 3.533 2.069 6.054v12.089h-1.916v-11.859c0-2.139-0.524-3.807-1.572-5.003s-2.498-1.795-4.35-1.795c-1.764 0-3.259 0.637-4.485 1.91s-1.84 2.986-1.84 5.137v11.611h-1.916v-11.974c0-2.063-0.53-3.692-1.591-4.889-1.048-1.197-2.466-1.795-4.255-1.795s-3.303 0.694-4.542 2.082c-1.239 1.375-1.859 3.068-1.859 5.080v11.497h-1.936z"></path>
</symbol>
<symbol id="icon-btnClose" viewBox="0 0 32 32">
<path d="M25.546 7.869l-1.415-1.415-8.132 8.132-8.132-8.132-1.415 1.415 8.132 8.132-8.132 8.132 1.415 1.415 8.132-8.132 8.132 8.132 1.415-1.415-8.132-8.132z"></path>
<symbol id="icon-btn-mob-close" viewBox="0 0 32 32">
<path d="M5.333 13.333l-0.943 0.943-0.943-0.943 0.943-0.943 0.943 0.943zM28 24c0 0.736-0.597 1.333-1.333 1.333s-1.333-0.597-1.333-1.333h2.667zM11.057 20.943l-6.667-6.667 1.886-1.886 6.667 6.667-1.886 1.886zM4.391 12.391l6.667-6.667 1.886 1.886-6.667 6.667-1.886-1.886zM5.333 12h13.333v2.667h-13.333v-2.667zM28 21.333v2.667h-2.667v-2.667h2.667zM18.667 12c5.155 0 9.333 4.179 9.333 9.333h-2.667c0-3.682-2.985-6.667-6.667-6.667v-2.667z"></path>
</symbol>
<symbol id="icon-calendar" viewBox="0 0 32 32">
<path fill="#9b9faa" style="fill: var(--color1, #9b9faa)" d="M24 14.4h-3.2v3.2h3.2v-3.2z"></path>
<path fill="#9b9faa" style="fill: var(--color1, #9b9faa)" d="M17.6 14.4h-3.2v3.2h3.2v-3.2z"></path>
<path fill="#9b9faa" style="fill: var(--color1, #9b9faa)" d="M11.2 14.4h-3.2v3.2h3.2v-3.2z"></path>
<path fill="#9b9faa" style="fill: var(--color1, #9b9faa)" d="M27.2 3.2h-1.6v-3.2h-3.2v3.2h-12.8v-3.2h-3.2v3.2h-1.6c-1.776 0-3.184 1.44-3.184 3.2l-0.016 22.4c0 1.76 1.424 3.2 3.2 3.2h22.4c1.76 0 3.2-1.44 3.2-3.2v-22.4c0-1.76-1.44-3.2-3.2-3.2zM27.2 28.8h-22.4v-17.6h22.4v17.6z"></path>
</symbol>
<symbol id="icon-btn-delete" viewBox="0 0 32 32">
<path d="M6.276 4.391l-1.885 1.885 9.724 9.724-9.724 9.724 1.885 1.885 9.724-9.724 9.724 9.724 1.885-1.885-9.724-9.724 9.724-9.724-1.885-1.885-9.724 9.724z"></path>
</symbol>
<symbol id="icon-back-for-mobile-form" viewBox="0 0 32 32">
<path d="M5.333 13.333l-0.943 0.943-0.943-0.943 0.943-0.943 0.943 0.943zM28 24c0 0.736-0.597 1.333-1.333 1.333s-1.333-0.597-1.333-1.333h2.667zM11.057 20.943l-6.667-6.667 1.886-1.886 6.667 6.667-1.886 1.886zM4.391 12.391l6.667-6.667 1.886 1.886-6.667 6.667-1.886-1.886zM5.333 12h13.333v2.667h-13.333v-2.667zM28 21.333v2.667h-2.667v-2.667h2.667zM18.667 12c5.155 0 9.333 4.179 9.333 9.333h-2.667c0-3.682-2.985-6.667-6.667-6.667v-2.667z"></path>
</symbol>
</symbol>
</defs>
</svg>
